<svg height="512pt" viewBox="0 0 512 512" width="512pt" xmlns="http://www.w3.org/2000/svg"><path d="m512 256c0 141.386719-114.613281 256-256 256s-256-114.613281-256-256 114.613281-256 256-256 256 114.613281 256 256zm0 0" fill="#ff52a1"/><path d="m512 256c0-19.269531-2.144531-38.035156-6.179688-56.089844l-70.476562-70.476562-26.527344-14.007813-34.355468 65.054688-103.460938-102.496094h-30v86l19.492188 19.382813c-1.488282-.027344-2.984376-.042969-4.492188-.042969-27.640625 0-52.648438 4.507812-74.976562 11.699219l-77.839844-79.597657-26.527344 14.007813 40.160156 76.046875 13.636719 12.3125c-55.910156 32.859375-84.785156 77.359375-84.785156 77.359375s11.207031 17.273437 33.167969 38.238281l178.589843 178.589844c140.726563-.769531 254.574219-115.074219 254.574219-255.980469zm0 0" fill="#e80c6a"/><path d="m256 183.324219c-137.804688 0-210.332031 111.828125-210.332031 111.828125s72.527343 111.828125 210.332031 111.828125 210.332031-111.828125 210.332031-111.828125-72.527343-111.828125-210.332031-111.828125zm0 0" fill="#fff"/><path d="m466.328125 295.152344s-72.527344 111.832031-210.328125 111.832031v-223.660156c137.800781 0 210.328125 111.828125 210.328125 111.828125zm0 0" fill="#fff5cb"/><path d="m345.667969 295.152344c0 49.523437-40.144531 89.667968-89.667969 89.667968s-89.667969-40.144531-89.667969-89.667968c0-49.519532 40.144531-89.667969 89.667969-89.667969s89.667969 40.148437 89.667969 89.667969zm0 0" fill="#00efd1"/><path d="m345.671875 295.152344c0 49.519531-40.152344 89.671875-89.671875 89.671875v-179.339844c49.519531 0 89.671875 40.148437 89.671875 89.667969zm0 0" fill="#00ceb4"/><path d="m303.035156 295.152344c0 25.976562-21.058594 47.035156-47.035156 47.035156s-47.035156-21.058594-47.035156-47.035156c0-25.976563 21.058594-47.035156 47.035156-47.035156s47.035156 21.058593 47.035156 47.035156zm0 0" fill="#00ad95"/><path d="m303.03125 295.152344c0 25.980468-21.050781 47.03125-47.03125 47.03125v-94.0625c25.980469 0 47.03125 21.050781 47.03125 47.03125zm0 0" fill="#008878"/><path d="m76.660156 129.433594 26.53125-14.007813 40.160156 76.050781-26.527343 14.007813zm0 0" fill="#fff"/><path d="m368.671875 191.46875 40.160156-76.050781 26.53125 14.011719-40.164062 76.046874zm0 0" fill="#fff5cb"/><path d="m241 77.984375h30v86h-30zm0 0" fill="#fff"/><path d="m256 77.988281h15v86h-15zm0 0" fill="#fff5cb"/></svg>